HIERARCHY
ROOT Hips
{
	OFFSET 0.000000 0.000000 0.000000
	CHANNELS 6 Xposition Yposition Zposition Xrotation Yrotation Zrotation
	JOINT LeftUpLeg_virtual
	{
		OFFSET 0.000000 0.000000 0.000000
		CHANNELS 3 Xrotation Yrotation Zrotation
		JOINT LeftUpLeg
		{
			OFFSET 15.427100 -6.655098 0.678600
			CHANNELS 3 Xrotation Yrotation Zrotation
			JOINT LeftLeg
			{
				OFFSET 4.081073 -39.591068 13.024000
				CHANNELS 3 Xrotation Yrotation Zrotation
				JOINT LeftFoot
				{
					OFFSET -4.081074 -37.707932 -15.979700
					CHANNELS 3 Xrotation Yrotation Zrotation
					JOINT LeftToeBase
					{
						OFFSET 5.346399 -15.068900 20.645000
						CHANNELS 3 Xrotation Yrotation Zrotation
						JOINT LeftToe_End
						{
							OFFSET 2.754700 0.931300 11.300900
							CHANNELS 3 Xrotation Yrotation Zrotation
							End Site
							{
								OFFSET 0 0 0
							}
						}
					}
				}
			}
		}
	}
	JOINT RightUpLeg_virtual
	{
		OFFSET 0.000000 0.000000 0.000000
		CHANNELS 3 Xrotation Yrotation Zrotation
		JOINT RightUpLeg
		{
			OFFSET -15.569500 -6.655098 0.678600
			CHANNELS 3 Xrotation Yrotation Zrotation
			JOINT RightLeg
			{
				OFFSET -4.081825 -39.591045 13.023800
				CHANNELS 3 Xrotation Yrotation Zrotation
				JOINT RightFoot
				{
					OFFSET 4.081824 -37.707954 -15.979600
					CHANNELS 3 Xrotation Yrotation Zrotation
					JOINT RightToeBase
					{
						OFFSET -5.346400 -15.068900 20.645000
						CHANNELS 3 Xrotation Yrotation Zrotation
						JOINT RightToe_End
						{
							OFFSET -2.754700 0.931300 11.300900
							CHANNELS 3 Xrotation Yrotation Zrotation
							End Site
							{
								OFFSET 0 0 0
							}
						}
					}
				}
			}
		}
	}
	JOINT Spine_virtual
	{
		OFFSET 0.000000 0.000000 0.000000
		CHANNELS 3 Xrotation Yrotation Zrotation
		JOINT Spine
		{
			OFFSET -0.279200 12.230698 -2.892100
			CHANNELS 3 Xrotation Yrotation Zrotation
			JOINT Spine1
			{
				OFFSET -0.232667 10.192268 -1.242267
				CHANNELS 3 Xrotation Yrotation Zrotation
				JOINT Spine1_split
				{
					OFFSET -0.232667 10.192268 -1.242267
					CHANNELS 3 Xrotation Yrotation Zrotation
					JOINT Spine2
					{
						OFFSET -0.232667 10.192268 -1.242267
						CHANNELS 3 Xrotation Yrotation Zrotation
						JOINT Neck_virtual
						{
							OFFSET 0.000000 0.000000 0.000000
							CHANNELS 3 Xrotation Yrotation Zrotation
							JOINT Neck
							{
								OFFSET -0.418800 17.814194 8.416900
								CHANNELS 3 Xrotation Yrotation Zrotation
								JOINT Head
								{
									OFFSET 0.000000 7.031097 3.806800
									CHANNELS 3 Xrotation Yrotation Zrotation
									JOINT HeadTop_End
									{
										OFFSET 0.000000 24.646606 12.978600
										CHANNELS 3 Xrotation Yrotation Zrotation
										End Site
										{
											OFFSET 0 0 0
										}
									}
								}
							}
						}
						JOINT LeftShoulder_virtual
						{
							OFFSET 0.000000 0.000000 0.000000
							CHANNELS 3 Xrotation Yrotation Zrotation
							JOINT LeftShoulder
							{
								OFFSET 8.476499 7.247704 -3.868750
								CHANNELS 3 Xrotation Yrotation Zrotation
								JOINT LeftShoulder_split
								{
									OFFSET 8.476499 7.247704 -3.868750
									CHANNELS 3 Xrotation Yrotation Zrotation
									JOINT LeftArm
									{
										OFFSET 9.308998 -2.777710 0.208600
										CHANNELS 3 Xrotation Yrotation Zrotation
										JOINT LeftForeArm
										{
											OFFSET 29.972298 0.000000 0.000000
											CHANNELS 3 Xrotation Yrotation Zrotation
											JOINT LeftHand
											{
												OFFSET 26.026505 0.000000 0.000000
												CHANNELS 3 Xrotation Yrotation Zrotation
												End Site
												{
													OFFSET 0 0 0
												}
											}
										}
									}
								}
							}
						}
						JOINT RightShoulder_virtual
						{
							OFFSET 0.000000 0.000000 0.000000
							CHANNELS 3 Xrotation Yrotation Zrotation
							JOINT RightShoulder
							{
								OFFSET -7.570500 7.247704 -3.868750
								CHANNELS 3 Xrotation Yrotation Zrotation
								JOINT RightShoulder_split
								{
									OFFSET -7.570500 7.247704 -3.868750
									CHANNELS 3 Xrotation Yrotation Zrotation
									JOINT RightArm
									{
										OFFSET -9.308998 -2.777710 0.208500
										CHANNELS 3 Xrotation Yrotation Zrotation
										JOINT RightForeArm
										{
											OFFSET -29.972300 0.000000 0.000000
											CHANNELS 3 Xrotation Yrotation Zrotation
											JOINT RightHand
											{
												OFFSET -26.026505 0.000000 0.000000
												CHANNELS 3 Xrotation Yrotation Zrotation
												End Site
												{
													OFFSET 0 0 0
												}
											}
										}
									}
								}
							}
						}
					}
				}
			}
		}
	}
}
MOTION
Frames: 6
Frame Time: 0.03333333
3.449369 94.115723 -14.634193 0.000000 0.000000 0.000000 0.174738 13.352640 7.357786 -6.390004 15.339333 3.179637 7.881030 -0.743924 0.148727 -0.385365 8.059975 -12.762354 4.196690 -2.935130 -1.500892 0.000000 0.000000 0.000000 0.595881 14.357833 7.255584 -3.976930 -7.840225 -8.284906 18.422202 3.497113 -1.545525 -18.063919 -16.078757 15.560252 6.844045 3.568998 -9.606566 0.000000 0.000000 0.000000 -1.440792 18.587677 7.127376 4.611574 -3.469093 4.150924 4.533392 -0.889419 2.577468 0.103657 -0.024877 -0.061747 0.000000 0.000000 0.000000 4.554155 1.221553 2.052102 -1.371521 7.319721 1.548287 -8.371374 -3.848673 -15.266641 0.000000 0.000000 0.000000 3.544486 -0.045773 1.127987 2.167679 -2.627637 -13.109407 1.721027 -3.482639 -0.880842 -2.223398 -3.509968 -35.360811 28.136112 -61.885373 20.044809 0.000000 0.000000 0.000000 5.877555 0.830558 1.769440 -2.965969 16.001248 15.398750 2.120720 1.761564 4.376547 -20.581933 17.905771 57.536551 -95.727369 81.583331 98.221044 0.000000 0.000000 0.000000 
3.414469 94.075958 -14.508343 0.000000 0.000000 0.000000 0.118063 13.050270 7.377760 -6.148354 15.651334 3.168383 7.821071 -0.843720 0.083317 -0.686299 8.185082 -12.559689 4.498363 -3.000112 -1.486670 0.000000 0.000000 0.000000 0.553807 14.066972 7.276203 -3.816909 -7.405505 -8.326207 18.461441 3.304865 -1.445115 -18.219373 -16.128464 15.758711 6.759069 3.630318 -9.515523 0.000000 0.000000 0.000000 -1.494250 18.572647 7.102740 4.484566 -3.712011 4.022082 4.587167 -0.990227 2.656225 0.103172 -0.047064 -0.071073 0.000000 0.000000 0.000000 4.622736 1.099727 2.156770 -1.308185 7.178258 1.092313 -8.356467 -3.784537 -15.187487 0.000000 0.000000 0.000000 3.498049 -0.132360 1.223692 2.038092 -2.795886 -13.004213 1.810614 -3.108805 -1.007565 -1.871889 -3.584899 -35.291283 28.471442 -61.453432 20.161542 0.000000 0.000000 0.000000 5.895707 0.724089 1.882449 -3.021641 16.838332 15.724029 1.897096 1.957960 4.626464 -14.522493 20.360545 57.402371 -121.219506 80.823650 123.540131 0.000000 0.000000 0.000000 
3.409645 94.049667 -14.409927 0.000000 0.000000 0.000000 0.056176 12.807964 7.382831 -5.890938 15.924989 3.141076 7.744389 -0.892758 0.007506 -1.039618 8.291647 -12.362165 4.782901 -3.067190 -1.476962 0.000000 0.000000 0.000000 0.512578 13.844951 7.277126 -3.627480 -6.921227 -8.366877 18.444759 3.106500 -1.349281 -18.322315 -16.174969 15.916214 6.697992 3.695464 -9.453451 0.000000 0.000000 0.000000 -1.561172 18.511262 7.060936 4.357012 -3.972482 3.858065 4.617894 -1.117502 2.690342 0.108700 -0.062437 -0.074868 0.000000 0.000000 0.000000 4.684003 0.954605 2.211371 -1.280703 7.016680 0.781643 -8.171305 -3.718121 -15.004124 0.000000 0.000000 0.000000 3.447824 -0.239675 1.278871 1.921304 -2.874194 -12.791071 1.865583 -2.716528 -1.088113 -1.364408 -4.006038 -35.306064 28.598801 -60.915315 20.159069 0.000000 0.000000 0.000000 5.902349 0.587861 1.948309 -3.020168 17.756334 15.849309 1.648947 2.031256 5.010477 -8.574418 23.914787 56.417356 -136.568499 79.339949 138.643729 0.000000 0.000000 0.000000 
3.440972 94.039833 -14.339169 0.000000 0.000000 0.000000 -0.015829 12.614353 7.369416 -5.624916 16.154758 3.110656 7.669038 -0.902834 -0.075984 -1.379355 8.364099 -12.180696 4.964733 -3.137634 -1.461350 0.000000 0.000000 0.000000 0.456508 13.645065 7.253926 -3.429579 -6.407786 -8.398847 18.393662 2.901308 -1.259017 -18.359286 -16.221699 16.021223 6.694234 3.760855 -9.422646 0.000000 0.000000 0.000000 -1.658976 18.364200 7.006686 4.237772 -4.235702 3.650433 4.627535 -1.263865 2.664589 0.112016 -0.069468 -0.066820 0.000000 0.000000 0.000000 4.730985 0.794475 2.192705 -1.303934 6.844956 0.631880 -7.805234 -3.648245 -14.674849 0.000000 0.000000 0.000000 3.400692 -0.366101 1.279077 1.820703 -2.830352 -12.451273 1.885566 -2.280732 -1.119235 -0.761596 -4.732788 -35.409190 28.581618 -60.352262 20.105582 0.000000 0.000000 0.000000 5.882424 0.419969 1.948626 -2.964777 18.776084 15.816003 1.436582 2.007988 5.325193 -2.668419 28.457133 54.209845 -144.929415 78.081124 146.745276 0.000000 0.000000 0.000000 
3.502640 94.039268 -14.295399 0.000000 0.000000 0.000000 -0.107231 12.445577 7.337474 -5.332565 16.368441 3.083821 7.607735 -0.869557 -0.161014 -1.689072 8.410645 -11.977550 5.040323 -3.212921 -1.445707 0.000000 0.000000 0.000000 0.372601 13.437006 7.209545 -3.239341 -5.886696 -8.415830 18.320726 2.699688 -1.174890 -18.319136 -16.262962 16.079814 6.744175 3.822786 -9.427717 0.000000 0.000000 0.000000 -1.801820 18.120606 6.944303 4.140468 -4.478721 3.386144 4.626837 -1.418786 2.574868 0.103772 -0.070431 -0.051649 0.000000 0.000000 0.000000 4.746037 0.641269 2.096220 -1.377490 6.676785 0.649817 -7.293805 -3.623402 -14.156332 0.000000 0.000000 0.000000 3.360344 -0.506220 1.221823 1.729358 -2.693735 -11.989516 1.834702 -1.875840 -1.130119 -0.164471 -5.664035 -35.581857 28.443268 -59.791503 20.027528 0.000000 0.000000 0.000000 5.804720 0.232045 1.882346 -2.862356 19.895240 15.666190 1.378668 1.913224 5.422856 3.262296 33.703148 50.532601 -149.150909 77.414716 150.716430 0.000000 0.000000 0.000000 
3.584756 94.045319 -14.273693 0.000000 0.000000 0.000000 -0.220957 12.236465 7.286511 -4.988700 16.602585 3.058347 7.563954 -0.789450 -0.237026 -1.990922 8.444390 -11.730303 5.071542 -3.290964 -1.448929 0.000000 0.000000 0.000000 0.255122 13.190289 7.151887 -3.061137 -5.367723 -8.411147 18.222967 2.516907 -1.105541 -18.204507 -16.292822 16.111414 6.815901 3.879914 -9.473361 0.000000 0.000000 0.000000 -1.964937 17.805251 6.866977 4.078311 -4.676399 3.062608 4.616923 -1.562925 2.424388 0.094201 -0.091056 -0.032507 0.000000 0.000000 0.000000 4.716531 0.514332 1.932986 -1.494765 6.512966 0.823444 -6.698756 -3.678286 -13.449989 0.000000 0.000000 0.000000 3.307062 -0.638941 1.114920 1.638258 -2.510977 -11.446597 1.752621 -1.506139 -1.122255 0.354947 -6.734763 -35.809504 28.204945 -59.242636 19.939392 0.000000 0.000000 0.000000 5.651241 0.039032 1.761005 -2.715243 21.083242 15.442378 1.358586 1.746470 5.463096 9.322630 39.197435 45.281009 -150.546604 77.525605 151.887752 0.000000 0.000000 0.000000 
